<svg width="70" height="70" viewBox="0 0 70 70" fill="none" xmlns="http://www.w3.org/2000/svg">
<path d="M21.5332 48.9453L25.1562 44.3652L13.3984 35L25.1562 25.6348L21.5332 21.0547L6.9043 32.7441C6.58529 33.0176 6.32324 33.348 6.11816 33.7354C5.91309 34.1227 5.81055 34.5443 5.81055 35C5.81055 35.4557 5.91309 35.8773 6.11816 36.2646C6.32324 36.652 6.58529 36.9824 6.9043 37.2559L21.5332 48.9453ZM48.4668 21.0547L44.8438 25.6348L56.6016 35L44.8438 44.3652L48.4668 48.9453L63.0957 37.2559C63.4147 36.9824 63.6768 36.652 63.8818 36.2646C64.0869 35.8773 64.1895 35.4557 64.1895 35C64.1895 34.5443 64.0869 34.1227 63.8818 33.7354C63.6768 33.348 63.4147 33.0176 63.0957 32.7441L48.4668 21.0547ZM43.6816 9.36523L31.9922 61.8652L26.3184 60.6348L38.0078 8.13477L43.6816 9.36523Z" fill="#00EEFF"/>
</svg>
