<svg width="40" height="40" viewBox="0 0 40 40" fill="none" xmlns="http://www.w3.org/2000/svg">
<rect x="1" y="1" width="38" height="38" rx="19" stroke="#00EEFF" stroke-width="2"/>
<path d="M27.4609 16.9141C27.4479 16.5885 27.4121 16.2663 27.3535 15.9473C27.2949 15.6283 27.207 15.3255 27.0898 15.0391L27.1094 15.0781C26.9141 14.5703 26.6276 14.1276 26.25 13.75C25.8724 13.3724 25.4362 13.0859 24.9414 12.8906L24.9219 12.8711C24.6484 12.7669 24.3587 12.6855 24.0527 12.627C23.7467 12.5684 23.431 12.5391 23.1055 12.5391H23.0859C22.6823 12.513 22.321 12.4967 22.002 12.4902C21.6829 12.4837 21.0156 12.4805 20 12.4805C18.9844 12.4805 18.3138 12.4837 17.9883 12.4902C17.6628 12.4967 17.3047 12.513 16.9141 12.5391C16.5755 12.5391 16.2533 12.5716 15.9473 12.6367C15.6413 12.7018 15.3451 12.7865 15.0586 12.8906L15.0781 12.8711C14.5833 13.0794 14.1471 13.3724 13.7695 13.75C13.3919 14.1276 13.1055 14.5573 12.9102 15.0391L12.8906 15.0781C12.7865 15.3516 12.7051 15.6413 12.6465 15.9473C12.5879 16.2533 12.5521 16.569 12.5391 16.8945C12.526 17.2982 12.5163 17.6595 12.5098 17.9785C12.5033 18.2975 12.5 18.9648 12.5 19.9805C12.5 20.9961 12.5 21.6667 12.5 21.9922C12.5 22.3177 12.513 22.6823 12.5391 23.0859C12.5521 23.3984 12.5879 23.7044 12.6465 24.0039C12.7051 24.3034 12.7865 24.6029 12.8906 24.9023C13.0859 25.4102 13.3724 25.8529 13.75 26.2305C14.1276 26.6081 14.5638 26.8945 15.0586 27.0898H15.0977C15.3581 27.207 15.6413 27.2982 15.9473 27.3633C16.2533 27.4284 16.569 27.4609 16.8945 27.4609H16.9141C17.3177 27.487 17.679 27.5033 17.998 27.5098C18.3171 27.5163 18.9844 27.5195 20 27.5195C21.0156 27.5195 21.6862 27.5163 22.0117 27.5098C22.3372 27.5033 22.6953 27.487 23.0859 27.4609C23.4245 27.4609 23.7467 27.4284 24.0527 27.3633C24.3587 27.2982 24.6615 27.2135 24.9609 27.1094L24.9219 27.1289C25.4167 26.9206 25.8529 26.6276 26.2305 26.25C26.6081 25.8724 26.8945 25.4427 27.0898 24.9609L27.1094 24.9219C27.2135 24.6354 27.2949 24.3392 27.3535 24.0332C27.4121 23.7272 27.4479 23.418 27.4609 23.1055C27.474 22.7018 27.4837 22.3405 27.4902 22.0215C27.4967 21.7025 27.5 21.0352 27.5 20.0195C27.5 18.9909 27.5 18.3171 27.5 17.998C27.5 17.679 27.487 17.3177 27.4609 16.9141ZM20 23.8281C19.4661 23.8281 18.9648 23.7305 18.4961 23.5352C18.0273 23.3268 17.6172 23.0501 17.2656 22.7051C16.9141 22.36 16.6406 21.9531 16.4453 21.4844C16.237 21.0156 16.1328 20.5143 16.1328 19.9805C16.1328 19.4466 16.237 18.9453 16.4453 18.4766C16.6406 18.0078 16.9141 17.6009 17.2656 17.2559C17.6172 16.9108 18.0273 16.6341 18.4961 16.4258C18.9648 16.2305 19.4661 16.1328 20 16.1328C20.5339 16.1328 21.0352 16.2305 21.5039 16.4258C21.9596 16.6341 22.3633 16.9108 22.7148 17.2559C23.0664 17.6009 23.3398 18.0078 23.5352 18.4766C23.7435 18.9453 23.8477 19.4466 23.8477 19.9805C23.8477 20.5143 23.7435 21.0156 23.5352 21.4844C23.3398 21.9531 23.0664 22.36 22.7148 22.7051C22.3633 23.0501 21.9596 23.3268 21.5039 23.5352C21.0352 23.7305 20.5339 23.8281 20 23.8281ZM24.0039 16.8945C23.7565 16.8945 23.5449 16.8066 23.3691 16.6309C23.1934 16.4551 23.1055 16.2435 23.1055 15.9961C23.1055 15.7487 23.1934 15.5371 23.3691 15.3613C23.5449 15.1855 23.7565 15.0977 24.0039 15.0977C24.2513 15.0977 24.4629 15.1855 24.6387 15.3613C24.8145 15.5371 24.9023 15.7487 24.9023 15.9961C24.9023 16.2435 24.8145 16.4551 24.6387 16.6309C24.4629 16.8066 24.2513 16.8945 24.0039 16.8945ZM22.5 19.9805C22.5 20.6706 22.2559 21.2598 21.7676 21.748C21.2793 22.2363 20.6901 22.4805 20 22.4805C19.3099 22.4805 18.7207 22.2363 18.2324 21.748C17.7441 21.2598 17.5 20.6706 17.5 19.9805C17.5 19.2904 17.7441 18.7012 18.2324 18.2129C18.7207 17.7246 19.3099 17.4805 20 17.4805C20.6901 17.4805 21.2793 17.7246 21.7676 18.2129C22.2559 18.7012 22.5 19.2904 22.5 19.9805Z" fill="#00EEFF"/>
</svg>
