<svg width="40" height="40" viewBox="0 0 40 40" fill="none" xmlns="http://www.w3.org/2000/svg">
<rect x="1" y="1" width="38" height="38" rx="19" stroke="#00EEFF" stroke-width="2"/>
<path d="M15.9766 14.1797C15.9766 14.6745 15.7975 15.1009 15.4395 15.459C15.0814 15.8171 14.6549 15.9961 14.1602 15.9961C13.6523 15.9961 13.2194 15.8171 12.8613 15.459C12.5033 15.1009 12.3242 14.6745 12.3242 14.1797C12.3242 13.6719 12.5033 13.2389 12.8613 12.8809C13.2194 12.5228 13.6523 12.3438 14.1602 12.3438C14.6549 12.3438 15.0814 12.5228 15.4395 12.8809C15.7975 13.2389 15.9766 13.6719 15.9766 14.1797ZM17.6953 17.3828V27.5H20.8398V22.5C20.8398 21.8359 20.9505 21.237 21.1719 20.7031C21.3932 20.1693 21.9076 19.9023 22.7148 19.9023C23.5221 19.9023 23.9974 20.2018 24.1406 20.8008C24.2839 21.3997 24.3555 21.9922 24.3555 22.5781V27.5H27.5V21.9531C27.5 20.5859 27.2689 19.4401 26.8066 18.5156C26.3444 17.5911 25.319 17.1289 23.7305 17.1289C22.9622 17.1289 22.3275 17.3014 21.8262 17.6465C21.3249 17.9915 20.9701 18.3659 20.7617 18.7695H20.7031V17.3828H17.6953ZM12.5781 17.3828H15.7227V27.5H12.5781V17.3828Z" fill="#00EEFF"/>
</svg>
