<svg width="40" height="40" viewBox="0 0 40 40" fill="none" xmlns="http://www.w3.org/2000/svg">
<rect x="1" y="1" width="38" height="38" rx="19" stroke="#00EEFF" stroke-width="2"/>
<path d="M26.3672 16.6602C26.3672 16.7383 26.3672 16.8132 26.3672 16.8848C26.3672 16.9564 26.3672 17.0312 26.3672 17.1094C26.3672 18.2161 26.1589 19.3359 25.7422 20.4688C25.3255 21.6016 24.7135 22.627 23.9062 23.5449C23.099 24.4629 22.1029 25.2083 20.918 25.7812C19.7331 26.3672 18.3659 26.6602 16.8164 26.6602C15.8659 26.6602 14.9544 26.5267 14.082 26.2598C13.2096 25.9928 12.4023 25.6185 11.6602 25.1367C11.8034 25.1628 11.9401 25.1758 12.0703 25.1758C12.2005 25.1758 12.3372 25.1758 12.4805 25.1758C12.4805 25.1758 12.487 25.1758 12.5 25.1758C13.2812 25.1758 14.0267 25.0488 14.7363 24.7949C15.446 24.541 16.0872 24.1862 16.6602 23.7305L16.6406 23.75C15.9115 23.737 15.2637 23.5156 14.6973 23.0859C14.1309 22.6562 13.737 22.1094 13.5156 21.4453V21.4258C13.6068 21.4388 13.7077 21.4518 13.8184 21.4648C13.929 21.4779 14.0365 21.4844 14.1406 21.4844C14.2969 21.4844 14.4466 21.4714 14.5898 21.4453C14.7331 21.4193 14.8763 21.3932 15.0195 21.3672C14.2513 21.1979 13.61 20.8073 13.0957 20.1953C12.5814 19.5833 12.3242 18.8737 12.3242 18.0664V18.0273C12.5586 18.1445 12.8027 18.2422 13.0566 18.3203C13.3105 18.3984 13.5742 18.444 13.8477 18.457C13.3919 18.1445 13.0273 17.7441 12.7539 17.2559C12.4805 16.7676 12.3438 16.237 12.3438 15.6641C12.3438 15.3516 12.3861 15.0521 12.4707 14.7656C12.5553 14.4792 12.6693 14.2122 12.8125 13.9648C13.2292 14.4727 13.6914 14.9349 14.1992 15.3516C14.707 15.7682 15.2539 16.1263 15.8398 16.4258C16.4258 16.7253 17.0443 16.9661 17.6953 17.1484C18.3464 17.3307 19.0169 17.4414 19.707 17.4805H19.7266C19.7005 17.3503 19.681 17.2201 19.668 17.0898C19.6549 16.9596 19.6484 16.8294 19.6484 16.6992C19.6484 15.7747 19.9772 14.9837 20.6348 14.3262C21.2923 13.6686 22.0833 13.3398 23.0078 13.3398C23.4896 13.3398 23.9421 13.4375 24.3652 13.6328C24.7884 13.8281 25.1497 14.0885 25.4492 14.4141C25.8529 14.3359 26.2337 14.2253 26.5918 14.082C26.9499 13.9388 27.2917 13.7695 27.6172 13.5742L27.5781 13.5938C27.4479 13.9974 27.2591 14.3555 27.0117 14.668C26.7643 14.9805 26.4714 15.2409 26.1328 15.4492H26.1133C26.4648 15.4102 26.8066 15.3451 27.1387 15.2539C27.4707 15.1628 27.7865 15.0456 28.0859 14.9023L28.0469 14.9219C27.8125 15.2604 27.5553 15.5729 27.2754 15.8594C26.9954 16.1458 26.6992 16.4062 26.3867 16.6406L26.3672 16.6602Z" fill="#00EEFF"/>
</svg>
