<svg width="40" height="40" viewBox="0 0 40 40" fill="none" xmlns="http://www.w3.org/2000/svg">
<rect x="1" y="1" width="38" height="38" rx="19" stroke="#00EEFF" stroke-width="2"/>
<path d="M21.1719 27.5V20.6641H23.4766L23.8086 17.9883H21.1719V16.2891C21.1719 15.8984 21.2533 15.5827 21.416 15.3418C21.5788 15.1009 21.9336 14.9805 22.4805 14.9805H23.8867V12.5977C23.5872 12.5716 23.2682 12.5488 22.9297 12.5293C22.5911 12.5098 22.2526 12.5 21.9141 12.5C21.901 12.5 21.888 12.5 21.875 12.5C21.862 12.5 21.849 12.5 21.8359 12.5C20.8203 12.5 19.9935 12.8027 19.3555 13.4082C18.7174 14.0137 18.3984 14.8893 18.3984 16.0352V17.9883H16.1133V20.6641H18.3984V27.5H21.1719Z" fill="#00EEFF"/>
</svg>
