<svg width="56" height="56" viewBox="0 0 56 56" fill="none" xmlns="http://www.w3.org/2000/svg">
<path d="M52.7734 2.52927C51.0417 0.843071 48.8883 -2.67029e-05 46.3135 -2.67029e-05C43.7386 -2.67029e-05 41.5853 0.843071 39.8535 2.52927L15.4492 27.0019C15.1758 27.2754 14.9593 27.583 14.7998 27.9248C14.6403 28.2666 14.5605 28.6425 14.5605 29.0527C14.5605 29.4629 14.6403 29.8388 14.7998 30.1806C14.9593 30.5224 15.1758 30.83 15.4492 31.1035L24.1992 39.8535C24.4727 40.1269 24.7803 40.3434 25.1221 40.5029C25.4639 40.6624 25.8398 40.7422 26.25 40.7422C26.6602 40.7422 27.0361 40.6624 27.3779 40.5029C27.7197 40.3434 28.0273 40.1269 28.3008 39.8535L52.7734 15.4492C53.5938 14.6289 54.2432 13.6605 54.7217 12.5439C55.2002 11.4274 55.4395 10.2539 55.4395 9.02341C55.4395 7.74737 55.2002 6.55108 54.7217 5.43454C54.2432 4.318 53.5938 3.34958 52.7734 2.52927ZM48.6035 11.2793L26.25 33.7011L21.6016 29.0527L44.0234 6.69919C44.2969 6.38018 44.6387 6.14092 45.0488 5.98142C45.459 5.82191 45.8691 5.74216 46.2793 5.74216C46.735 5.74216 47.168 5.82191 47.5781 5.98142C47.9883 6.14092 48.3301 6.38018 48.6035 6.69919C48.9225 6.97263 49.1618 7.31443 49.3213 7.72458C49.4808 8.13474 49.5605 8.56768 49.5605 9.02341C49.5605 9.43357 49.4808 9.84372 49.3213 10.2539C49.1618 10.664 48.9225 11.0058 48.6035 11.2793ZM14.5605 37.8027C12.7376 36.8912 10.5843 36.9026 8.10059 37.8369C5.61686 38.7711 4.375 40.6966 4.375 43.6133C4.375 45.3906 4.375 46.9287 4.375 48.2275C4.375 49.5263 2.91667 50.9049 0 52.3633C0 52.3633 0.524089 52.6823 1.57227 53.3203C2.62044 53.9127 3.94206 54.414 5.53711 54.8242C7.13216 55.2343 8.88672 55.3483 10.8008 55.166C12.6693 54.9381 14.4238 54.0039 16.0645 52.3633C17.8874 50.5403 18.8216 48.0224 18.8672 44.8095C18.9128 41.5967 17.4772 39.261 14.5605 37.8027Z" fill="#00EEFF"/>
</svg>
